<?xml version="1.0" encoding="utf-8"?>
<!-- Generator: Adobe Illustrator 27.3.1, SVG Export Plug-In . SVG Version: 6.00 Build 0)  -->
<svg version="1.1" id="Layer_1" xmlns="http://www.w3.org/2000/svg" xmlns:xlink="http://www.w3.org/1999/xlink" x="0px" y="0px"
	 viewBox="0 0 16 16" style="enable-background:new 0 0 16 16;" xml:space="preserve">
<style type="text/css">
	.st0{fill:#F04C4D;}
</style>
<path class="st0" d="M8,8c1.7,0,3-1.3,3-3S9.7,2,8,2S5,3.3,5,5S6.3,8,8,8z M10,5c0,1.1-0.9,2-2,2S6,6.1,6,5s0.9-2,2-2S10,3.9,10,5z
	 M14,13c0,1-1,1-1,1H3c0,0-1,0-1-1s1-4,6-4S14,12,14,13z M13,13c0-0.2-0.2-1-0.8-1.7C11.5,10.7,10.3,10,8,10c-2.3,0-3.5,0.7-4.2,1.3
	C3.2,12,3,12.8,3,13H13z"/>
</svg>
